<svg id="Layer_1" data-name="Layer 1" xmlns="http://www.w3.org/2000/svg" viewBox="0 0 96 96"><path d="M82.27,81.86a1,1,0,0,1-.61-.22L61.72,66.1H20.8A10.63,10.63,0,0,1,10.18,55.48V17.94A10.64,10.64,0,0,1,20.8,7.32H83.38A10.63,10.63,0,0,1,94,17.94V55.48A10.63,10.63,0,0,1,83.38,66.1h-.11V80.86a1,1,0,0,1-.56.89A1,1,0,0,1,82.27,81.86ZM20.8,9.32a8.63,8.63,0,0,0-8.62,8.62V55.48A8.63,8.63,0,0,0,20.8,64.1H62.07a1,1,0,0,1,.61.21l18.59,14.5V65.1a1,1,0,0,1,1-1h1.11A8.63,8.63,0,0,0,92,55.48V17.94a8.63,8.63,0,0,0-8.62-8.62Z"/><path d="M13.73,88.68a1.13,1.13,0,0,1-.44-.1,1,1,0,0,1-.56-.9V72.93h-.1A10.64,10.64,0,0,1,2,62.3V24.76a10.58,10.58,0,0,1,9.47-10.54,1,1,0,1,1,.21,2A8.59,8.59,0,0,0,4,24.76V62.3a8.64,8.64,0,0,0,8.63,8.63h1.1a1,1,0,0,1,1,1v13.7L33.31,71.14a1,1,0,0,1,.62-.21H70.81a1,1,0,0,1,0,2H34.27L14.35,88.47A1,1,0,0,1,13.73,88.68Z"/><path d="M41,54.06H36.7a3.65,3.65,0,0,1-3.65-3.64V34a3.65,3.65,0,0,1,3.65-3.64H41A3.65,3.65,0,0,1,44.69,34V50.42A3.65,3.65,0,0,1,41,54.06ZM36.7,32.32A1.64,1.64,0,0,0,35.05,34V50.42a1.64,1.64,0,0,0,1.65,1.64H41a1.64,1.64,0,0,0,1.65-1.64V34A1.64,1.64,0,0,0,41,32.32Z"/><path d="M64,55.53h0c-4.73,0-13.71-.64-20.72-4.35a1,1,0,0,1,.93-1.77C50.79,52.92,59.41,53.5,64,53.53h0a3.35,3.35,0,0,0,3.32-3l1.8-15a3.36,3.36,0,0,0-3.34-3.77H55.51a1,1,0,0,1-.77-.35,1,1,0,0,1-.22-.81c0-.28.55-2.14,1.36-5,.25-2.54-.14-4.33-1.13-5.18a3,3,0,0,0-2.1-.61,15,15,0,0,1-8.58,13.75,1,1,0,0,1-1.31-.55,1,1,0,0,1,.54-1.3h0a12.83,12.83,0,0,0,7.33-12.71,1,1,0,0,1,.73-1A5.43,5.43,0,0,1,56,19c1.56,1.32,2.18,3.68,1.83,7l0,.17c-.52,1.82-.84,3-1,3.7h9a5.37,5.37,0,0,1,5.33,6l-1.8,15A5.35,5.35,0,0,1,64,55.53Z"/></svg>